<?xml version="1.0" encoding="utf-8"?>
<!-- Generator: Adobe Illustrator 16.0.0, SVG Export Plug-In . SVG Version: 6.00 Build 0)  -->
<!DOCTYPE svg PUBLIC "-//W3C//DTD SVG 1.1//EN" "http://www.w3.org/Graphics/SVG/1.1/DTD/svg11.dtd">
<svg version="1.1" id="Layer_1" xmlns="http://www.w3.org/2000/svg" xmlns:xlink="http://www.w3.org/1999/xlink" x="0px" y="0px"
	 width="26px" height="26px" viewBox="0 0 26 26" enable-background="new 0 0 26 26" xml:space="preserve">
<g>
	<g>
		<path fill="#DF2B2F" d="M13,0C8.221,0,4.333,3.888,4.333,8.667c0,1.435,0.358,2.857,1.041,4.119l7.152,12.936
			C12.621,25.893,12.803,26,13,26s0.379-0.107,0.474-0.279l7.155-12.94c0.68-1.257,1.037-2.68,1.037-4.114
			C21.666,3.888,17.779,0,13,0z"/>
	</g>
	<polygon fill="#FFFFFF" points="15.393,10.363 15.393,12.1 19.518,10.523 19.518,5.31 12.992,7.799 12.978,7.785 6.481,5.31 
		6.481,10.523 10.606,12.1 10.606,10.363 8.117,9.405 8.117,7.682 12.183,9.228 12.183,12.689 13.817,12.689 13.817,9.228 
		17.883,7.682 17.883,9.405 	"/>
</g>
</svg>
